<svg width="300" height="70"><defs id="SvgjsDefs1048"></defs><g id="SvgjsG1049" featurekey="root" fill="#de2371"></g><g id="SvgjsG1050" featurekey="symbol1" fill="#fcf565" transform="matrix(0.8156986137006897,0,0,0.8156986137006897,4.224856599919844,-4.676049930672587)"><path fill="#fcf565" d="M38.083,19.881c5.546,0,10.043,4.496,10.043,10.042c0,4.055-2.405,7.546-5.865,9.131v34.715  c0,2.305-1.869,4.174-4.178,4.174c-2.305,0-4.172-1.869-4.172-4.174V39.054c-3.462-1.585-5.867-5.076-5.867-9.131  C28.042,24.377,32.536,19.881,38.083,19.881 M38.083,17.998c-3.186,0-6.181,1.24-8.433,3.493s-3.492,5.247-3.491,8.433  c0,4.233,2.267,8.141,5.867,10.269v33.577c0,3.34,2.716,6.058,6.056,6.058c3.342,0,6.062-2.718,6.062-6.058V40.192  c3.599-2.128,5.866-6.036,5.866-10.269C50.01,23.348,44.659,17.998,38.083,17.998L38.083,17.998z"></path><path fill="#fcf565" d="M38.122,23.938c3.269,0,5.929,2.659,5.929,5.928c0,2.598-1.663,4.869-4.138,5.651l-0.963,0.304v1.011v7.64  c0,0.455-0.372,0.825-0.828,0.825c-0.454,0-0.823-0.37-0.823-0.825v-7.64v-1.011l-0.964-0.304c-2.474-0.78-4.137-3.052-4.139-5.651  C32.196,26.598,34.854,23.938,38.122,23.938 M38.122,22.56c-4.033,0-7.305,3.271-7.305,7.307c0.002,3.269,2.144,6.033,5.103,6.966  v7.64c0,1.217,0.986,2.204,2.202,2.204c1.218,0,2.207-0.987,2.207-2.204v-7.64c2.955-0.933,5.102-3.699,5.102-6.966  C45.431,25.83,42.158,22.56,38.122,22.56L38.122,22.56z"></path><path fill="#fcf565" d="M64.501,19.875c2.304,0,4.172,1.87,4.172,4.175v34.713c3.46,1.584,5.866,5.077,5.866,9.133  c0.003,5.544-4.494,10.041-10.038,10.041c-5.548,0-10.044-4.497-10.044-10.041c0-4.056,2.403-7.547,5.865-9.133V24.05  C60.322,21.745,62.19,19.875,64.501,19.875 M64.501,17.992c-3.343,0-6.062,2.718-6.062,6.059v33.576  c-3.6,2.129-5.865,6.037-5.865,10.271c0,6.575,5.351,11.925,11.928,11.925c3.184,0,6.179-1.24,8.432-3.493  c2.252-2.253,3.492-5.247,3.491-8.433c0-4.233-2.268-8.142-5.867-10.271V24.05C70.557,20.709,67.84,17.992,64.501,17.992  L64.501,17.992z"></path><path fill="#fcf565" d="M64.415,27.97c0.458,0,0.83,0.372,0.83,0.829v32.127v1.015l0.968,0.306c2.485,0.784,4.154,3.065,4.156,5.675  c0,3.282-2.671,5.954-5.954,5.954c-3.28,0-5.95-2.672-5.95-5.954c0-2.609,1.67-4.89,4.155-5.675l0.968-0.306v-1.015V28.798  C63.588,28.341,63.959,27.97,64.415,27.97 M64.415,26.584c-1.221,0-2.213,0.991-2.213,2.214v32.127  c-2.967,0.937-5.122,3.715-5.122,6.995c0,4.052,3.286,7.339,7.335,7.339c4.054,0,7.34-3.287,7.34-7.339  c-0.002-3.282-2.156-6.059-5.125-6.995V28.798C66.63,27.574,65.641,26.584,64.415,26.584L64.415,26.584z"></path><path fill="#fcf565" d="M24.52,45.695l-1.871,0.002l0.371-0.588c0.239-0.375,0.13-0.872-0.25-1.105  c-0.373-0.239-0.866-0.127-1.108,0.245L20.749,45.7l-3.16,0.004l1.578-2.77l2.178-0.119c0.442-0.022,0.783-0.402,0.758-0.845  c-0.022-0.442-0.401-0.784-0.846-0.758l-1.143,0.063l0.503-0.889c0.215-0.384,0.085-0.874-0.302-1.093  c-0.387-0.218-0.873-0.086-1.093,0.301l-0.51,0.893l-0.315-0.568c-0.212-0.391-0.699-0.53-1.087-0.316  c-0.392,0.215-0.529,0.701-0.319,1.09l0.789,1.429l-1.578,2.772l-1.583-2.772l0.792-1.429c0.215-0.389,0.071-0.875-0.316-1.09  c-0.388-0.214-0.879-0.071-1.087,0.316l-0.315,0.568l-0.51-0.893c-0.218-0.387-0.706-0.519-1.091-0.301  c-0.389,0.219-0.524,0.709-0.302,1.093l0.503,0.889l-1.149-0.063c-0.442-0.025-0.815,0.316-0.843,0.758  c-0.024,0.443,0.316,0.822,0.758,0.845l2.178,0.119l1.581,2.772l-3.16-0.006l-0.919-1.451c-0.237-0.372-0.73-0.484-1.106-0.245  c-0.375,0.233-0.485,0.731-0.247,1.105l0.373,0.588l-1.871-0.002c-0.45,0-0.808,0.359-0.808,0.803c0,0.441,0.357,0.801,0.8,0.801  l1.846,0.006L9.143,48.24c-0.234,0.375-0.118,0.871,0.257,1.105c0.378,0.235,0.871,0.119,1.101-0.257l1.117-1.781l3.203,0.003  l-1.531,2.682l-1.658,0.095c-0.443,0.031-0.776,0.407-0.752,0.849c0.024,0.441,0.402,0.784,0.847,0.755l0.612-0.036l-0.938,1.644  c-0.217,0.384-0.085,0.875,0.298,1.094c0.385,0.222,0.877,0.089,1.097-0.299l0.977-1.704l0.576,1.033  c0.209,0.391,0.7,0.528,1.087,0.312c0.388-0.216,0.526-0.704,0.311-1.09L14.7,50.762l1.497-2.626l0.005,0.004v-0.004l1.5,2.626  l-1.046,1.883c-0.215,0.386-0.073,0.874,0.314,1.09c0.39,0.217,0.874,0.079,1.089-0.312l0.576-1.033l0.975,1.704  c0.22,0.388,0.712,0.521,1.099,0.299c0.38-0.219,0.516-0.71,0.295-1.094l-0.936-1.644l0.614,0.036  c0.442,0.028,0.821-0.314,0.846-0.755c0.028-0.442-0.312-0.818-0.754-0.849l-1.658-0.095l-1.535-2.682l3.21-0.003l1.107,1.781  c0.237,0.376,0.729,0.493,1.109,0.257c0.376-0.234,0.491-0.73,0.256-1.105l-0.585-0.935l1.851-0.006c0.44,0,0.8-0.36,0.8-0.801  C25.324,46.054,24.965,45.695,24.52,45.695z"></path><path fill="#fcf565" d="M83.652,51.779v2.308c0,0.495,0.396,0.894,0.889,0.894c0.494,0,0.892-0.398,0.892-0.894v-2.308  c-0.289,0.051-0.588,0.079-0.892,0.079C84.239,51.858,83.939,51.83,83.652,51.779z"></path><path fill="#fcf565" d="M85.433,41.477v-2.308c0-0.494-0.397-0.893-0.892-0.893c-0.493,0-0.889,0.399-0.889,0.893v2.308  c0.287-0.051,0.587-0.078,0.889-0.078C84.845,41.399,85.144,41.426,85.433,41.477z"></path><path fill="#fcf565" d="M76.191,46.628c0,0.494,0.4,0.892,0.893,0.892h2.307c-0.051-0.291-0.079-0.589-0.079-0.892  c0-0.306,0.028-0.602,0.079-0.894h-2.307C76.592,45.735,76.191,46.135,76.191,46.628z"></path><path fill="#fcf565" d="M92.896,46.628c0-0.493-0.4-0.894-0.893-0.894h-2.31c0.053,0.292,0.077,0.588,0.077,0.894  c0,0.303-0.024,0.602-0.077,0.892h2.31C92.495,47.521,92.896,47.122,92.896,46.628z"></path><path fill="#fcf565" d="M78.636,40.722c-0.349,0.349-0.349,0.914,0,1.261l1.636,1.634c0.347-0.489,0.771-0.917,1.263-1.262  l-1.636-1.634C79.551,40.374,78.986,40.374,78.636,40.722z"></path><path fill="#fcf565" d="M87.555,50.901l1.632,1.633c0.176,0.175,0.402,0.262,0.632,0.262s0.458-0.087,0.63-0.262  c0.351-0.348,0.351-0.913,0-1.261l-1.634-1.635C88.468,50.128,88.043,50.556,87.555,50.901z"></path><path fill="#fcf565" d="M80.271,49.639l-1.636,1.635c-0.349,0.348-0.349,0.914,0,1.261c0.173,0.175,0.404,0.262,0.63,0.262  c0.229,0,0.46-0.087,0.633-0.262l1.636-1.633C81.043,50.556,80.618,50.128,80.271,49.639z"></path><path fill="#fcf565" d="M89.187,40.722l-1.632,1.634c0.488,0.345,0.913,0.772,1.26,1.262l1.634-1.634  c0.351-0.347,0.351-0.912,0-1.261C90.099,40.374,89.536,40.374,89.187,40.722z"></path><path fill="#fcf565" d="M82.719,43.542c-0.521,0.308-0.956,0.743-1.263,1.262c-0.172,0.288-0.304,0.601-0.386,0.932  c-0.073,0.287-0.121,0.585-0.121,0.894s0.048,0.606,0.121,0.892c0.082,0.332,0.214,0.646,0.386,0.933  c0.307,0.521,0.742,0.954,1.261,1.262c0.286,0.171,0.603,0.302,0.936,0.388c0.283,0.074,0.582,0.116,0.889,0.116  c0.311,0,0.609-0.042,0.892-0.116c0.335-0.085,0.65-0.216,0.936-0.388c0.52-0.308,0.953-0.741,1.261-1.262  c0.17-0.288,0.303-0.601,0.387-0.933c0.076-0.286,0.117-0.583,0.117-0.892s-0.041-0.606-0.117-0.894  c-0.084-0.331-0.217-0.644-0.387-0.932c-0.308-0.519-0.741-0.954-1.262-1.262c-0.284-0.172-0.6-0.303-0.935-0.387  c-0.282-0.075-0.581-0.117-0.892-0.117c-0.307,0-0.605,0.042-0.889,0.117C83.319,43.239,83.003,43.37,82.719,43.542z M85.433,45.058  c0.286,0.161,0.519,0.396,0.678,0.677c0.073,0.13,0.135,0.269,0.172,0.414c0.044,0.153,0.067,0.313,0.067,0.479  s-0.023,0.326-0.067,0.479c-0.037,0.145-0.099,0.283-0.17,0.413c-0.161,0.282-0.394,0.517-0.68,0.679  c-0.128,0.072-0.264,0.129-0.411,0.17c-0.152,0.042-0.312,0.066-0.48,0.066c-0.165,0-0.325-0.025-0.478-0.066  c-0.146-0.041-0.282-0.098-0.411-0.17c-0.285-0.162-0.52-0.397-0.682-0.679c-0.07-0.129-0.128-0.268-0.17-0.413  c-0.042-0.153-0.066-0.313-0.066-0.479s0.024-0.326,0.066-0.479c0.042-0.145,0.1-0.284,0.17-0.414  c0.162-0.281,0.396-0.516,0.682-0.677c0.127-0.073,0.266-0.13,0.411-0.171c0.152-0.041,0.312-0.065,0.478-0.065  c0.168,0,0.328,0.024,0.48,0.065C85.168,44.928,85.305,44.985,85.433,45.058z"></path></g><g id="SvgjsG1051" featurekey="text1" fill="#fcf565" transform="matrix(2.3679659553505767,0,0,2.3679659553505767,98.3628441095682,-5.442477748936444)"><path d="M14.169 23.62712 c0.10169 0.20339 0.034229 0.37271 -0.20305 0.37271 l-1.9831 0 c-0.16949 0 -0.27119 -0.08458 -0.33898 -0.22017 l-0.91525 -1.9322 l-6.5256 0 l-0.91525 1.9322 c-0.067797 0.13559 -0.18644 0.22017 -0.33898 0.22017 l-2 0 c-0.20339 0 -0.32203 -0.16933 -0.22034 -0.37271 l6.3898 -13.102 c0.067797 -0.11881 0.15238 -0.16966 0.23712 -0.16966 l0.20339 0 c0.10169 0 0.16949 0.050847 0.23729 0.16966 z M5.2375 19.6441 l4.4576 0 l-2.2203 -4.7288 z M18.254105084745763 10.441 l-1.6778 0 c-0.18644 0 -0.32203 0.15254 -0.32203 0.32203 l0 12.898 c0 0.18644 0.15254 0.33881 0.33898 0.33881 l1.678 0 c0.16933 0 0.32186 -0.16933 0.32186 -0.33881 l0 -12.898 c0 -0.16949 -0.16949 -0.32203 -0.33898 -0.32203 z M31.423152542372883 23.61017 c0.13559 0.20339 0.034064 0.38983 -0.23712 0.38983 l-1.5763 0 c-0.47458 0 -0.88136 -0.44068 -1.0339 -0.69492 l-2.339 -3.5763 l-2.8475 0 l0 3.9322 c0 0.20339 -0.13559 0.33881 -0.32203 0.33881 l-1.7966 0 c-0.16949 0 -0.30508 -0.13543 -0.30508 -0.33881 l0 -12.898 c0 -0.16949 0.13559 -0.32203 0.32203 -0.32203 l5.4068 0 c2.7797 0 4.4915 2.5763 4.4915 4.6441 c0 1.6442 -0.98305 3.4576 -2.661 4.2373 z M23.389952542372882 12.78 l0.00033103 4.6102 l2.9659 0 c1.6102 0 2.3898 -1.1695 2.3898 -2.3559 c0 -1.1356 -0.79661 -2.2542 -2.3902 -2.2542 l-2.9659 0 z M44.83049152542373 21.4578 c0.16949 0.13559 0.16933 0.30508 0.016784 0.45763 c-1.2542 1.3729 -3.0339 2.2032 -5.0678 2.2032 c-3.7288 0 -6.8475 -2.9998 -6.8475 -6.8642 c0 -3.8475 3.1186 -6.9322 6.8475 -6.9322 c2.0508 0 3.8475 0.84746 5.1186 2.2373 c0.15254 0.15254 0.13559 0.32203 -0.016949 0.45763 l-1.4068 1.1356 c-0.16966 0.13559 -0.32203 0.11864 -0.45763 -0.033898 c-0.72881 -0.76271 -1.8644 -1.4575 -3.2203 -1.4575 c-2.4915 0 -4.4405 2.1524 -4.4405 4.5931 c0 2.4746 1.949 4.5254 4.4405 4.5254 c1.339 0 2.4576 -0.66102 3.1695 -1.4068 c0.15254 -0.15254 0.30508 -0.16949 0.47458 -0.050847 z M53.728661016949154 24.11864 c3.7966 0 6.8983 -3.0507 6.8983 -6.9151 c0 -3.8305 -3.1017 -6.8814 -6.8983 -6.8814 c-3.8305 0 -6.9322 3.0508 -6.9322 6.8814 c0 3.8644 3.1017 6.9151 6.9322 6.9151 z M53.728661016949154 21.7798 c-2.4407 0 -4.5085 -2.1017 -4.5085 -4.5763 c0 -2.4576 2.0678 -4.5422 4.5085 -4.5422 s4.4915 2.0846 4.4915 4.5422 c0 2.4746 -2.0508 4.5763 -4.4915 4.5763 z M71.01696779661017 21.6612 c0.18644 0 0.32203 0.13592 0.32203 0.33915 l0 1.678 c0 0.16949 -0.13559 0.32186 -0.32203 0.32186 l-8.0169 0 c-0.16949 0 -0.25424 -0.13543 -0.25424 -0.30508 l0 -12.932 c0 -0.16949 0.13559 -0.32203 0.32203 -0.32203 l1.7627 0 c0.18644 0 0.33898 0.15254 0.33898 0.32203 l0 10.898 l5.8475 0 z M78.10148644067796 10.441 c4.4068 0 6.9661 3.5424 6.9661 6.7288 c0 3.6102 -2.5763 6.8303 -6.9661 6.8303 l-4.4746 0 c-0.18644 0 -0.33898 -0.15238 -0.33898 -0.33881 l0 -12.898 c0 -0.16949 0.13559 -0.32203 0.32203 -0.32203 l4.4915 0 z M78.10148644067796 21.6612 c2.7966 0 4.4746 -2.1866 4.4576 -4.5086 c0 -2.288 -1.5932 -4.3727 -4.4576 -4.3727 l-2.4068 0 l0.016949 8.8814 l2.3898 0 z"></path></g></svg>